<svg xmlns="http://www.w3.org/2000/svg" viewBox="0 0 16 16">
	<g fill="white">
		<rect x="1" y="3" width="2" height="2" />
		<rect x="4" y="3" width="2" height="2" />
		<rect x="7" y="3" width="2" height="2" />
		<rect x="10" y="3" width="2" height="2" />
		<rect x="13" y="3" width="2" height="2" />

		<rect x="1" y="6" width="2" height="2" />
		<rect x="4" y="6" width="2" height="2" />
		<rect x="7" y="6" width="2" height="2" />
		<rect x="10" y="6" width="2" height="2" />
		<rect x="13" y="6" width="2" height="2" />

		<rect x="1" y="9" width="2" height="2" />
		<rect x="4" y="9" width="2" height="2" />
		<rect x="7" y="9" width="2" height="2" />
		<rect x="10" y="9" width="2" height="2" />
		<rect x="13" y="9" width="2" height="2" />

		<rect x="1" y="12" width="2" height="2" />
		<rect x="4" y="12" width="2" height="2" />
		<rect x="7" y="12" width="2" height="2" />
		<rect x="10" y="12" width="2" height="2" />
		<rect x="13" y="12" width="2" height="2" />
	</g>
</svg>
